<svg aria-hidden="true" style="position:absolute;width:0;height:0;overflow:hidden" xmlns="http://www.w3.org/2000/svg"><defs><symbol id="icon-phone" viewBox="0 0 32 32"><path d="M22 20c-2 2-2 4-4 4s-4-2-6-4-4-4-4-6 2-2 4-4-4-8-6-8-6 6-6 6c0 4 4.109 12.109 8 16s12 8 16 8c0 0 6-4 6-6s-6-8-8-6z"/></symbol><symbol id="icon-location" viewBox="0 0 32 32"><path d="M16 0C10.477 0 6 4.477 6 10c0 10 10 22 10 22s10-12 10-22c0-5.523-4.477-10-10-10zm0 16a6 6 0 1 1 0-12 6 6 0 0 1 0 12z"/></symbol><symbol id="icon-mail4" viewBox="0 0 32 32"><path d="M16 0C7.163 0 0 7.163 0 16s7.163 16 16 16 16-7.163 16-16S24.837 0 16 0zM8 8h16c.286 0 .563.061.817.177L16 18.463 7.183 8.176c.254-.116.531-.177.817-.177zM6 22V10c0-.042.002-.084.004-.125l5.864 6.842-5.8 5.8A1.983 1.983 0 0 1 5.999 22zm18 2H8c-.177 0-.35-.024-.517-.069l5.691-5.691L16 21.537l2.826-3.297 5.691 5.691c-.167.045-.34.069-.517.069zm2-2c0 .177-.024.35-.069.517l-5.8-5.8 5.865-6.842c.003.041.004.083.004.125v12z"/></symbol><symbol id="icon-telegram1" viewBox="0 0 32 32"><path d="M16 0C7.162 0 0 7.162 0 16s7.162 16 16 16 16-7.163 16-16S24.837 0 16 0zm7.863 10.969-2.625 12.369c-.181.881-.712 1.087-1.45.681l-4-2.956-1.919 1.869c-.225.219-.4.4-.8.4-.519 0-.431-.194-.606-.688L11.1 18.169l-3.956-1.231c-.856-.262-.862-.85.194-1.269l15.412-5.95c.7-.319 1.381.169 1.113 1.25z"/></symbol><symbol id="icon-github" viewBox="0 0 32 32"><path d="M16 .395c-8.836 0-16 7.163-16 16 0 7.069 4.585 13.067 10.942 15.182.8.148 1.094-.347 1.094-.77 0-.381-.015-1.642-.022-2.979-4.452.968-5.391-1.888-5.391-1.888-.728-1.849-1.776-2.341-1.776-2.341-1.452-.993.11-.973.11-.973 1.606.113 2.452 1.649 2.452 1.649 1.427 2.446 3.743 1.739 4.656 1.33.143-1.034.558-1.74 1.016-2.14-3.554-.404-7.29-1.777-7.29-7.907 0-1.747.625-3.174 1.649-4.295-.166-.403-.714-2.03.155-4.234 0 0 1.344-.43 4.401 1.64a15.353 15.353 0 0 1 4.005-.539c1.359.006 2.729.184 4.008.539 3.054-2.07 4.395-1.64 4.395-1.64.871 2.204.323 3.831.157 4.234 1.026 1.12 1.647 2.548 1.647 4.295 0 6.145-3.743 7.498-7.306 7.895.574.497 1.085 1.47 1.085 2.963 0 2.141-.019 3.864-.019 4.391 0 .426.288.925 1.099.768C27.421 29.457 32 23.462 32 16.395c0-8.837-7.164-16-16-16z"/></symbol><symbol id="icon-skype" viewBox="0 0 32 32"><path d="M13.3 1.169c-.05-.031-.106-.056-.156-.081-.056.012-.106.019-.162.031l.319.05zM1.15 13.156a1.84 1.84 0 0 0-.025.162c.031.05.05.1.081.15l-.056-.313zM30.837 18.831c.012-.056.019-.113.031-.169-.031-.05-.05-.1-.081-.15l.05.319zM18.5 30.719c.05.031.106.056.156.081a1.64 1.64 0 0 1 .169-.025l-.325-.056z"/><path d="M30.869 18.663c-.012.056-.019.113-.031.169l-.056-.325c.031.056.056.106.087.156.163-.9.25-1.819.25-2.738a15.067 15.067 0 0 0-4.426-10.687 15.133 15.133 0 0 0-4.8-3.237A15.023 15.023 0 0 0 16.012.813c-.963 0-1.925.088-2.863.269h-.006c.05.025.106.05.156.081l-.319-.05c.056-.012.106-.019.162-.031A8.99 8.99 0 0 0 8.948.032C6.56.032 4.31.963 2.623 2.651S.004 6.588.004 8.976c0 1.519.394 3.019 1.125 4.338a1.84 1.84 0 0 0 .025-.162l.056.319c-.031-.05-.056-.1-.081-.15-.15.856-.225 1.731-.225 2.606a15.072 15.072 0 0 0 4.425 10.681 15.1 15.1 0 0 0 4.806 3.238 15.023 15.023 0 0 0 8.525.95c-.05-.031-.1-.056-.156-.081l.325.056a1.64 1.64 0 0 1-.169.025 8.956 8.956 0 0 0 4.4 1.163c2.387 0 4.637-.931 6.325-2.619s2.619-3.938 2.619-6.325a9.07 9.07 0 0 0-1.137-4.35zm-14.8 6.518c-5.369 0-7.769-2.637-7.769-4.619 0-1.012.75-1.725 1.781-1.725 2.3 0 1.7 3.3 5.988 3.3 2.194 0 3.406-1.194 3.406-2.413 0-.731-.363-1.544-1.806-1.9l-4.775-1.194c-3.844-.963-4.544-3.044-4.544-5 0-4.056 3.819-5.581 7.406-5.581 3.306 0 7.2 1.825 7.2 4.263 0 1.044-.906 1.65-1.938 1.65-1.962 0-1.6-2.713-5.55-2.713-1.963 0-3.044.887-3.044 2.156s1.55 1.675 2.894 1.981l3.538.787c3.869.863 4.85 3.125 4.85 5.25 0 3.294-2.531 5.756-7.637 5.756z"/></symbol><symbol id="icon-linkedin1" viewBox="0 0 32 32"><path d="M29 0H3C1.35 0 0 1.35 0 3v26c0 1.65 1.35 3 3 3h26c1.65 0 3-1.35 3-3V3c0-1.65-1.35-3-3-3zM12 26H8V12h4v14zm-2-16c-1.106 0-2-.894-2-2s.894-2 2-2c1.106 0 2 .894 2 2s-.894 2-2 2zm16 16h-4v-8c0-1.106-.894-2-2-2s-2 .894-2 2v8h-4V12h4v2.481C18.825 13.35 20.087 12 21.5 12c2.488 0 4.5 2.238 4.5 5v9z"/></symbol></defs></svg>